<svg width="18" height="17" viewBox="0 0 18 17" fill="none" xmlns="http://www.w3.org/2000/svg">
<path d="M17.3928 6.20243C17.3928 5.95369 17.2047 5.79912 16.828 5.73861L11.767 5.00267L9.49851 0.415256C9.37092 0.139665 9.20609 0.00193119 9.0045 0.00193119C8.80291 0.00193119 8.6382 0.139665 8.51049 0.415256L6.2419 5.00267L1.18065 5.73861C0.804328 5.79912 0.616104 5.95369 0.616104 6.20243C0.616104 6.34362 0.70013 6.50499 0.868183 6.68641L4.53811 10.2555L3.67063 15.2966C3.65714 15.3907 3.65045 15.4581 3.65045 15.4983C3.65045 15.6395 3.68572 15.7586 3.75626 15.8563C3.8268 15.9538 3.9326 16.0024 4.0738 16.0024C4.19483 16.0024 4.32922 15.9623 4.4771 15.8815L9.00388 13.5019L13.531 15.8815C13.6723 15.9622 13.8067 16.0024 13.9342 16.0024C14.069 16.0024 14.1713 15.9539 14.2418 15.8563C14.3123 15.7588 14.3475 15.6395 14.3475 15.4983C14.3475 15.4109 14.3442 15.3437 14.3374 15.2966L13.4699 10.2555L17.1297 6.68641C17.3047 6.51168 17.3928 6.35031 17.3928 6.20243Z" fill="#F0DE1E"/>
</svg>
