<svg width="512" height="456" viewBox="0 0 512 456" fill="none" xmlns="http://www.w3.org/2000/svg">
<path d="M256 455.516C248.711 455.516 241.684 452.875 236.207 448.078C215.523 429.992 195.582 412.996 177.988 398.004L177.898 397.926C126.316 353.969 81.7734 316.008 50.7812 278.613C16.1367 236.809 0 197.172 0 153.871C0 111.801 14.4258 72.9883 40.6172 44.5781C67.1211 15.832 103.488 0 143.031 0C172.586 0 199.652 9.34375 223.477 27.7695C235.5 37.0703 246.398 48.4531 256 61.7305C265.605 48.4531 276.5 37.0703 288.527 27.7695C312.352 9.34375 339.418 0 368.973 0C408.512 0 444.883 15.832 471.387 44.5781C497.578 72.9883 512 111.801 512 153.871C512 197.172 495.867 236.809 461.223 278.609C430.23 316.008 385.691 353.965 334.117 397.918C316.492 412.934 296.52 429.957 275.789 448.086C270.316 452.875 263.285 455.516 256 455.516Z" fill="#C00000"/>
</svg>
