<svg width="14" height="14" viewBox="0 0 14 14" fill="none" xmlns="http://www.w3.org/2000/svg">
<path fill-rule="evenodd" clip-rule="evenodd" d="M13.4142 3.41421C13.7893 3.03914 14 2.53043 14 2C14 1.46957 13.7893 0.960859 13.4142 0.585787C13.0391 0.210714 12.5304 0 12 0C11.4696 0 10.9609 0.210714 10.5858 0.585787C10.2107 0.960859 10 1.46957 10 2C10 2.14187 10.0151 2.28219 10.0443 2.41882L3.50845 5.68676C3.4783 5.65214 3.44688 5.61845 3.41421 5.58579C3.03914 5.21071 2.53043 5 2 5C1.46957 5 0.960859 5.21071 0.585787 5.58579C0.210714 5.96086 0 6.46957 0 7C0 7.53043 0.210714 8.03914 0.585787 8.41421C0.960859 8.78929 1.46957 9 2 9C2.53043 9 3.03914 8.78929 3.41421 8.41421C3.44688 8.38155 3.4783 8.34786 3.50845 8.31324L10.0443 11.5812C10.0151 11.7178 10 11.8581 10 12C10 12.5304 10.2107 13.0391 10.5858 13.4142C10.9609 13.7893 11.4696 14 12 14C12.5304 14 13.0391 13.7893 13.4142 13.4142C13.7893 13.0391 14 12.5304 14 12C14 11.4696 13.7893 10.9609 13.4142 10.5858C13.0391 10.2107 12.5304 10 12 10C11.4696 10 10.9609 10.2107 10.5858 10.5858C10.5531 10.6185 10.5217 10.6521 10.4916 10.6868L3.95567 7.41882C3.98493 7.28219 4 7.14187 4 7C4 6.85813 3.98493 6.71781 3.95566 6.58118L10.4916 3.31324C10.5217 3.34786 10.5531 3.38155 10.5858 3.41421C10.9609 3.78929 11.4696 4 12 4C12.5304 4 13.0391 3.78929 13.4142 3.41421Z" fill="#6C6C6C"/>
</svg>
